<?xml version="1.0" encoding="utf-8"?>
<!-- Generator: Adobe Illustrator 22.0.1, SVG Export Plug-In . SVG Version: 6.00 Build 0)  -->
<svg version="1.1" xmlns="http://www.w3.org/2000/svg" xmlns:xlink="http://www.w3.org/1999/xlink" x="0px" y="0px"
	 viewBox="0 0 1190.3 411.6" style="enable-background:new 0 0 1190.3 411.6;" xml:space="preserve" shape-rendering="geometricPrecision">
<style type="text/css">
	.st0{fill:#FFFFFF;}
</style>
<g>
	<polygon class="st0" points="0,5.8 0,62.8 143.7,62.8 0,234.1 0,266.8 259,266.8 259,209.8 110.5,209.8 259,32.8 259,5.8 	"/>
	<path class="st0" d="M364.3,5.7c-38.1,0-68.9,30.9-68.9,68.9v123.1c0,38.1,30.9,68.9,68.9,68.9h190.1v-57H386.9
		c-12.4,0-22.5-10.1-22.5-22.5v-22.5h145v-57h-145V85.2c0-12.4,10.1-22.5,22.5-22.5h167.5v-57C554.4,5.7,364.3,5.7,364.3,5.7z"/>
	<path class="st0" d="M786.6,164.7L786.6,164.7c38.1,0,68.9-30.9,68.9-68.9V74.6c0-38.1-30.9-68.9-68.9-68.9H601.8h-0.4v261h69v-102
		h26.3l85.6,102h89.9L786.6,164.7z M670.4,107.7v-45H764c12.4,0,22.5,10.1,22.5,22.5l0,0c0,12.4-10.1,22.5-22.5,22.5H670.4z"/>
	<g>
		<path class="st0" d="M1038.1,0C928.7,0,889.9,35.6,889.9,136c0,100.7,38.8,136.5,148.2,136.5s148.2-35.7,148.2-136.5
			C1186.3,35.6,1147.5,0,1038.1,0z M1038.1,215.5c-77.8,0-77.8-38.6-77.8-79.4c0-40.7,0-79.2,77.8-79.2s77.8,38.5,77.8,79.2
			C1115.9,176.9,1115.9,215.5,1038.1,215.5z"/>
	</g>
	<path class="st0" d="M21.7,338.4l14,52l14.1-52h21.4v71.5H57.3v-52.2L42,409.9H29.2L14,357.7v52.2H0v-71.5L21.7,338.4L21.7,338.4z"
		/>
	<path class="st0" d="M170.9,374.6c0,11.7-4.5,22.8-12,29.4c-5.7,5-13.2,7.6-21.8,7.6c-8.8,0-15.9-2.6-21.6-7.6
		c-7.7-6.9-12-17.6-12-29.7c0-11,4.7-22.4,11.8-28.7c5.6-5,13.7-7.9,21.9-7.9C157,337.6,170.9,352.8,170.9,374.6z M118.6,374.3
		c0,14.7,7.1,23.7,18.5,23.7c5.3,0,9.9-1.9,13.2-5.7c3.8-4.1,5.5-9.9,5.5-17.9c0-7.5-1.7-13.6-4.9-17.3c-3.1-3.6-8.4-5.9-13.5-5.9
		C126.2,351.2,118.6,360.6,118.6,374.3z"/>
	<path class="st0" d="M267,338.4v13.8h-20.7v57.7h-15.1v-57.7h-20.5v-13.8H267z"/>
	<path class="st0" d="M374.1,374.6c0,11.7-4.5,22.8-12,29.4c-5.7,5-13.2,7.6-21.8,7.6c-8.8,0-15.9-2.6-21.6-7.6
		c-7.7-6.9-12-17.6-12-29.7c0-11,4.7-22.4,11.8-28.7c5.6-5,13.7-7.9,21.9-7.9C360.2,337.6,374.1,352.8,374.1,374.6z M321.8,374.3
		c0,14.7,7.1,23.7,18.5,23.7c5.3,0,9.9-1.9,13.2-5.7c3.8-4.1,5.5-9.9,5.5-17.9c0-7.5-1.7-13.6-4.9-17.3c-3.1-3.6-8.4-5.9-13.5-5.9
		C329.4,351.2,321.8,360.6,321.8,374.3z"/>
	<path class="st0" d="M442.4,338.4c10.1,0,13.5,0.8,17.6,3.8c5.4,3.8,8.7,10.6,8.7,17.5c0,7.1-2.9,12.5-9.2,17.1
		c6,1.3,8.1,4.6,8.1,12.5v11.8c0,3.8,0.8,5.4,4.1,8.8h-13.4c-2.3,0-3-0.3-4.1-1.5c-1.4-1.6-1.5-2-1.5-7.6v-9.1c0-5-3.3-8-8.9-8
		h-16.4V410h-15v-71.5L442.4,338.4L442.4,338.4z M427.4,370.4h16.2c5.6,0,9.4-3.8,9.4-9.2c0-5.5-3.9-9.2-9.4-9.2h-16.2V370.4z"/>
	<path class="st0" d="M574.9,384.8c-0.2,7.7-2.7,13.3-8,18.2c-5.8,5.4-13.4,8.1-21.9,8.1c-20,0-32.8-13.9-32.8-35.8
		c0-12,4.3-23,11.3-29.5c5.7-5,13.7-7.9,22.4-7.9c11.1,0,20.5,4.1,25,11.1c2.6,3.9,4.1,8.6,4.1,13v1h-15.1c-0.5-7.2-6-11.7-14-11.7
		c-11.7,0-18.2,8.5-18.2,23.7c0,13.9,7,22.5,18.2,22.5c8.5,0,14-5,14-12.8L574.9,384.8L574.9,384.8z"/>
	<path class="st0" d="M631.1,338.4l14.4,28.4l13.8-28.4h17.1l-23.7,44.7v26.8h-15.1v-26.8l-23.7-44.7H631.1z"/>
	<path class="st0" d="M778.1,384.8c-0.2,7.7-2.7,13.3-8,18.2c-5.8,5.4-13.4,8.1-21.9,8.1c-20,0-32.8-13.9-32.8-35.8
		c0-12,4.3-23,11.3-29.5c5.7-5,13.7-7.9,22.4-7.9c11.1,0,20.5,4.1,25,11.1c2.6,3.9,4.1,8.6,4.1,13v1H763c-0.5-7.2-6-11.7-14-11.7
		c-11.7,0-18.2,8.5-18.2,23.7c0,13.9,7,22.5,18.2,22.5c8.5,0,14-5,14-12.8L778.1,384.8L778.1,384.8z"/>
	<path class="st0" d="M838.4,338.4v58.1h34.8v13.4h-49.8v-71.5H838.4z"/>
	<path class="st0" d="M974.7,338.4v13.4H938v13.7h32.4V379H938v17.1h38.8v13.7H923v-71.5L974.7,338.4L974.7,338.4z"/>
	<path class="st0" d="M1037.5,387.2c0.5,7.2,5.8,11,14.8,11c8.9,0,13.6-2.8,13.6-7.9c0-3.6-2.5-5.7-8.4-7.3l-12.8-3.4
		c-6.4-1.7-11.3-3.8-13.9-5.7c-3.9-2.8-6.4-8.6-6.4-14.6c0-5.9,2.3-11.3,6.3-15.2c4.8-4.8,11.6-7.1,21.1-7.1
		c17.3,0,25.9,7.8,26.7,23.9h-15.1c-0.2-7.1-4.5-10.9-12.2-10.9c-7,0-11.7,3.3-11.7,8c0,4,2.5,6.1,8.4,7.5l8.7,2.1
		c7.2,1.7,14.5,4.4,17.5,6.4c4.1,2.7,6.6,8.4,6.6,14.4c0,13.9-11.3,22.9-28.6,22.9c-11.6,0-21.1-3.9-25.7-10.5
		c-2.7-3.9-3.9-7.8-4.1-13.7h15.2V387.2z"/>
	<path class="st0" d="M1190.3,374.2c0,20.6-16.6,37.3-37.1,37.3s-37.2-16.8-37.2-37.3c0-20.9,16.6-37.4,37.7-37.4
		C1173.6,336.8,1190.3,353.7,1190.3,374.2z M1126.8,374.2c0,14.8,11.9,27.1,26.3,27.1s26.2-12.2,26.2-27.1
		c0-14.8-11.7-27.2-25.9-27.2C1138.6,347,1126.8,359,1126.8,374.2z M1154.1,356.6c3.7,0,5.7,0.4,7.6,1.5c3,1.7,4.6,4.6,4.6,8.1
		c0,3.8-1.7,6.6-5,8.2c3.5,1.5,4.6,3.9,4.9,11c0.1,1.9,0.4,3.7,0.8,5h-7.5c-0.4-0.9-0.5-1.9-0.8-4.7c-0.5-7.4-1.4-8.4-7.4-8.4h-2.8
		v13.1h-7.7v-33.7h13.3V356.6z M1148.3,371.6h3.8c4.5,0,6.5-1.3,6.5-4.5c0-3.1-1.9-4.4-6.1-4.4h-4.2L1148.3,371.6L1148.3,371.6z"/>
</g>
</svg>
